<svg xmlns="http://www.w3.org/2000/svg" width="60.694" height="60.694" viewBox="0 0 60.694 60.694">
  <g id="account-icon" transform="translate(-108 -252)">
    <g id="frame" transform="translate(108 252)">
      <path id="Vector" d="M13.53,26.225h-.2a1.373,1.373,0,0,0-.455,0,13.012,13.012,0,1,1,.733,0Zm-.4-22.432a9.322,9.322,0,0,0-.354,18.638,4.174,4.174,0,0,1,.809,0,9.324,9.324,0,0,0-.455-18.638Z" transform="translate(17.221 3.161)" fill="#37474f"/>
      <path id="Vector-2" data-name="Vector" d="M0,0H60.694V60.694H0Z" fill="none" opacity="0"/>
      <path id="Vector-3" data-name="Vector" d="M19.144,25.574A24.98,24.98,0,0,1,5.437,21.78C1.922,19.454,0,16.267,0,12.8S1.922,6.126,5.437,3.774c7.587-5.033,19.877-5.033,27.413,0,3.49,2.327,5.437,5.513,5.437,8.978s-1.922,6.676-5.437,9.028A25.041,25.041,0,0,1,19.144,25.574ZM7.536,6.961c-2.428,1.619-3.743,3.692-3.743,5.867,0,2.15,1.34,4.223,3.743,5.817,6.3,4.223,16.918,4.223,23.215,0,2.428-1.619,3.743-3.692,3.743-5.867,0-2.15-1.34-4.223-3.743-5.817C24.455,2.763,13.833,2.763,7.536,6.961Z" transform="translate(11.632 31.453)" fill="#37474f"/>
    </g>
  </g>
</svg>
