<svg xmlns="http://www.w3.org/2000/svg" width="62.612" height="62.612" viewBox="0 0 62.612 62.612">
  <g id="lock-icon" transform="translate(-172 -252)">
    <g id="lock" transform="translate(172 252)">
      <path id="Vector" d="M33.263,24.784a1.971,1.971,0,0,1-1.957-1.957V17.61c0-8.218-2.322-13.7-13.7-13.7s-13.7,5.479-13.7,13.7v5.218a1.971,1.971,0,0,1-1.957,1.957A1.971,1.971,0,0,1,0,22.827V17.61C0,10.044,1.826,0,17.61,0s17.61,10.044,17.61,17.61v5.218A1.971,1.971,0,0,1,33.263,24.784Z" transform="translate(13.696 3.261)" fill="#37474f"/>
      <path id="Vector-2" data-name="Vector" d="M8.479,16.957a8.479,8.479,0,1,1,8.479-8.479A8.5,8.5,0,0,1,8.479,16.957Zm0-13.044a4.565,4.565,0,1,0,4.565,4.565A4.587,4.587,0,0,0,8.479,3.913Z" transform="translate(22.827 33.263)" fill="#37474f"/>
      <path id="Vector-3" data-name="Vector" d="M41.089,35.219H15c-11.5,0-15-3.5-15-15V15C0,3.5,3.5,0,15,0H41.089c11.5,0,15,3.5,15,15v5.218C56.09,31.723,52.594,35.219,41.089,35.219ZM15,3.913C5.661,3.913,3.913,5.687,3.913,15v5.218c0,9.314,1.748,11.088,11.088,11.088H41.089c9.34,0,11.088-1.774,11.088-11.088V15c0-9.314-1.748-11.088-11.088-11.088Z" transform="translate(3.261 24.132)" fill="#37474f"/>
      <path id="Vector-4" data-name="Vector" d="M0,0H62.612V62.612H0Z" fill="none" opacity="0"/>
    </g>
  </g>
</svg>
